<?xml version="1.0" standalone="no"?>
<!DOCTYPE svg PUBLIC "-//W3C//DTD SVG 20010904//EN"
 "http://www.w3.org/TR/2001/REC-SVG-20010904/DTD/svg10.dtd">
<svg version="1.0" xmlns="http://www.w3.org/2000/svg"
 width="400.000000pt" height="400.000000pt" viewBox="0 0 400.000000 400.000000"
 preserveAspectRatio="xMidYMid meet">
<metadata>
Created by potrace 1.14, written by Peter Selinger 2001-2017
</metadata>
<g transform="translate(0.000000,400.000000) scale(0.100000,-0.100000)"
fill="#000000" stroke="none">
<path d="M1745 3765 c-48 -17 -80 -52 -96 -105 -10 -33 -9 -47 5 -83 9 -25 25
-52 36 -62 18 -16 18 -18 -13 -68 l-31 -51 46 -86 47 -87 -620 -453 c-340
-249 -621 -456 -624 -460 -2 -4 5 -17 17 -30 19 -20 22 -20 30 -6 5 9 16 16
23 16 8 0 15 5 15 11 0 5 4 8 10 4 5 -3 17 6 26 20 9 14 23 25 30 25 8 0 14 5
14 12 0 6 3 8 7 5 3 -4 12 1 20 11 9 10 12 11 7 2 -8 -16 46 27 59 48 4 6 14
12 21 12 8 0 21 10 30 23 9 12 14 16 10 8 -4 -9 2 -8 20 4 14 9 23 22 19 28
-3 6 -1 7 5 3 7 -4 12 -2 12 4 0 6 5 8 10 5 6 -3 13 1 16 9 3 9 11 16 18 16 7
0 21 7 31 15 88 68 155 115 155 109 0 -4 8 3 19 14 10 12 21 22 24 22 5 0 116
79 152 108 6 4 33 23 60 42 28 18 52 37 55 40 3 4 33 25 67 47 35 22 59 44 55
48 -4 5 -2 5 4 2 12 -7 44 15 99 65 17 15 35 28 42 28 6 0 13 3 15 8 2 4 19
18 39 32 30 21 46 24 89 21 28 -1 48 -7 43 -11 -4 -4 -244 -180 -533 -392
-289 -211 -571 -417 -627 -458 -56 -41 -102 -78 -102 -81 -1 -4 19 -4 44 -1
l45 5 0 -517 0 -517 338 3 337 3 59 28 c32 15 60 27 62 27 2 0 4 -11 4 -25 0
-25 1 -25 81 -25 l80 0 -3 195 -3 195 240 0 c261 0 291 -6 342 -61 36 -40 43
-74 43 -215 l0 -134 495 0 495 0 0 70 0 70 -358 2 -359 3 359 394 358 395 0
54 0 54 55 -4 c31 -3 52 -2 48 2 -17 15 -340 252 -753 555 -239 175 -461 338
-493 362 -50 37 -64 43 -107 43 -85 0 -146 34 -180 100 -10 19 -27 53 -39 75
-11 22 -22 62 -23 88 l-3 49 38 3 c69 7 137 68 137 124 0 21 4 22 66 19 l66
-3 64 -115 c38 -68 61 -121 57 -130 -3 -8 -5 -37 -4 -64 2 -37 -4 -57 -23 -86
l-25 -38 42 -28 c23 -15 50 -37 60 -49 10 -11 15 -13 11 -5 -8 14 18 -3 89
-61 18 -14 46 -33 62 -42 17 -8 39 -24 49 -36 11 -12 24 -21 30 -21 6 0 41
-25 79 -55 37 -30 72 -55 77 -55 6 0 10 -3 10 -8 0 -4 18 -18 40 -32 22 -14
40 -28 40 -32 0 -5 9 -8 20 -8 11 0 20 -3 20 -7 0 -5 13 -17 29 -28 16 -10 27
-23 25 -27 -3 -4 1 -6 8 -3 7 3 28 -9 46 -26 18 -17 37 -27 44 -23 6 4 8 3 5
-3 -4 -5 5 -16 18 -23 14 -7 25 -17 25 -22 0 -5 5 -6 10 -3 6 3 10 2 10 -3 0
-5 19 -22 41 -37 23 -15 38 -21 33 -13 -6 11 -5 10 9 -1 9 -7 15 -17 12 -21
-3 -4 2 -11 11 -14 10 -4 13 -2 9 7 -4 6 3 1 15 -13 12 -14 18 -19 14 -11 -5
9 2 7 18 -5 14 -10 24 -22 21 -26 -2 -5 3 -8 11 -8 8 0 21 -6 28 -13 7 -7 27
-22 45 -32 18 -10 30 -22 27 -27 -3 -5 -2 -7 3 -6 15 4 54 -23 47 -34 -4 -6
-3 -8 3 -5 6 4 29 -7 52 -23 48 -35 52 -36 68 -10 12 18 -18 41 -380 306 -215
158 -499 366 -629 462 l-238 173 35 46 c123 161 51 383 -143 439 -47 14 -66
15 -118 5 -61 -11 -64 -10 -90 14 -15 14 -43 29 -63 35 -43 12 -37 12 -86 -5z
m183 -109 c3 -26 2 -27 -44 -25 l-47 3 33 29 c37 33 54 31 58 -7z m-127 -54
c-11 -16 -26 -47 -33 -70 -14 -44 -16 -46 -35 -34 -8 5 0 26 28 70 22 34 44
62 50 62 6 0 1 -13 -10 -28z m1399 -1372 c0 -20 -7 -20 -1225 -20 -1218 0
-1225 0 -1225 20 0 20 7 20 1225 20 1218 0 1225 0 1225 -20z m-1065 -161 c97
-26 141 -92 132 -198 -6 -75 -25 -105 -88 -141 -43 -24 -50 -25 -277 -28 -128
-2 -239 -2 -245 1 -9 3 -11 54 -9 191 l3 186 222 0 c129 0 239 -5 262 -11z
m895 6 c0 -3 -136 -159 -302 -347 -277 -312 -303 -339 -306 -312 -8 75 -34
136 -76 179 l-44 43 35 34 c64 61 78 100 78 218 0 90 -3 111 -23 148 l-22 42
330 0 c181 0 330 -2 330 -5z m-1633 -38 c22 -15 45 -39 52 -53 7 -17 11 -113
11 -294 0 -181 -4 -277 -11 -294 -7 -14 -30 -38 -52 -53 l-40 -28 -259 -3
-258 -3 0 381 0 381 258 -3 259 -3 40 -28z"/>
<path d="M2310 1104 c-292 -46 -597 -153 -977 -342 -54 -27 -122 -55 -152 -62
-182 -43 -344 71 -456 322 -16 37 -33 68 -37 68 -11 0 -23 -150 -23 -300 0
-165 14 -226 67 -306 66 -97 193 -124 353 -74 39 12 221 95 405 185 513 251
767 344 1100 401 144 24 473 30 579 10 47 -8 86 -14 88 -12 11 10 -218 78
-344 102 -126 23 -477 28 -603 8z"/>
</g>
</svg>
